<?xml version="1.0" standalone="no"?>
<!DOCTYPE svg PUBLIC "-//W3C//DTD SVG 1.1//EN" "http://www.w3.org/Graphics/SVG/1.1/DTD/svg11.dtd" >
<svg xmlns="http://www.w3.org/2000/svg">
<metadata>
This is a custom SVG webfont generated by Font Squirrel.
Copyright   : Copyright 19901998 Bitstream Inc  All rights reserved
</metadata>
<defs>
<font id="ZurichCnBTRegular" horiz-adv-x="981" >
<font-face units-per-em="2048" ascent="1556" descent="-492" />
<missing-glyph horiz-adv-x="492" />
<glyph unicode=" "  horiz-adv-x="492" />
<glyph unicode="&#x09;" horiz-adv-x="492" />
<glyph unicode="&#xa0;" horiz-adv-x="492" />
<glyph unicode="!" horiz-adv-x="616" d="M197 1475h223l-39 -1125h-143zM215 0v199h191v-199h-191z" />
<glyph unicode="&#x22;" horiz-adv-x="590" d="M94 881v553h117v-553h-117zM377 881v553h119v-553h-119z" />
<glyph unicode="#" horiz-adv-x="1575" d="M104 467l43 123h320l96 272h-342l43 123h344l168 471h146l-166 -471h260l168 471h143l-164 -471h307l-43 -123h-311l-94 -272h330l-43 -123h-332l-166 -469h-145l168 469h-265l-168 -469h-143l166 469h-320zM614 590h263l96 272h-264z" />
<glyph unicode="$" d="M76 416q0 8 1 24.5t1 24.5h178q-1 -11 -1.5 -23.5t-0.5 -35.5q0 -132 47.5 -196.5t144.5 -64.5v539q-182 104 -257.5 198t-75.5 214q0 146 88 234.5t245 101.5v131h95v-131q164 -8 247.5 -96t83.5 -253v-28h-178v8q0 111 -38.5 167t-114.5 56v-442q200 -109 281 -208 t81 -228q0 -175 -95.5 -282.5t-266.5 -125.5v-162h-95v162q-183 14 -276.5 119t-93.5 297zM293 1102q0 -64 34.5 -113t118.5 -102v399q-75 -12 -114 -59t-39 -125zM541 146q89 9 135.5 71.5t46.5 171.5q0 76 -42.5 135.5t-139.5 118.5v-497z" />
<glyph unicode="%" horiz-adv-x="1315" d="M49 1081q0 187 67.5 278t205.5 91q135 0 203.5 -96t68.5 -287q0 -175 -69.5 -265.5t-202.5 -90.5q-138 0 -205.5 91.5t-67.5 278.5zM193 1087q0 -130 31.5 -194t97.5 -64q64 0 96.5 65t32.5 193q0 117 -34 180.5t-95 63.5q-65 0 -97 -60.5t-32 -183.5zM293 -25l612 1475 h119l-621 -1475h-110zM723 346q0 187 66.5 278t203.5 91q136 0 204.5 -96t68.5 -287q0 -175 -69.5 -266t-203.5 -91q-137 0 -203.5 92t-66.5 279zM864 352q0 -130 32 -194t97 -64q64 0 96.5 65t32.5 193q0 117 -33.5 180.5t-95.5 63.5q-64 0 -96.5 -60.5t-32.5 -183.5z" />
<glyph unicode="&#x26;" horiz-adv-x="1208" d="M80 387q0 155 74 250.5t208 114.5q-110 27 -171.5 114.5t-61.5 216.5q0 188 119.5 291t337.5 103h129v-168h-111q-143 0 -208.5 -56.5t-65.5 -179.5q0 -120 70 -186t198 -66h195v234h190v-234h180v-155h-180v-666h-395q-175 0 -244.5 15t-118.5 51q-71 52 -108 134 t-37 187zM289 420q0 -140 65 -196t238 -56h201v498h-191q-168 0 -240.5 -58t-72.5 -188z" />
<glyph unicode="'" horiz-adv-x="305" d="M94 881v553h117v-553h-117z" />
<glyph unicode="(" horiz-adv-x="592" d="M113 598q0 162 51.5 379.5t163.5 519.5h127q-70 -255 -104 -476.5t-34 -422.5q0 -207 30.5 -428t94.5 -477h-120q-106 297 -157.5 520t-51.5 385z" />
<glyph unicode=")" horiz-adv-x="592" d="M137 1497h129q110 -297 161.5 -516t51.5 -383q0 -162 -51.5 -385t-157.5 -520h-120q64 256 94 477t30 428q0 201 -33.5 422.5t-103.5 476.5z" />
<glyph unicode="*" d="M117 1081v127l309 -26l-176 252l108 63l134 -278l131 278l110 -63l-176 -252l307 24v-127l-307 27l176 -254l-110 -64l-131 281l-134 -281l-108 64l176 254z" />
<glyph unicode="+" horiz-adv-x="1706" d="M254 553v117h541v551h118v-551h539v-117h-539v-553h-118v553h-541z" />
<glyph unicode="," horiz-adv-x="492" d="M66 -240l104 467h195l-160 -467h-139z" />
<glyph unicode="-" horiz-adv-x="569" d="M68 442v150h434v-150h-434z" />
<glyph unicode="." horiz-adv-x="492" d="M147 0v227h195v-227h-195z" />
<glyph unicode="/" horiz-adv-x="569" d="M-94 -190l598 1687h125l-598 -1687h-125z" />
<glyph unicode="0" d="M90 713q0 311 19.5 419.5t66.5 174.5q53 71 133 108t183 37q104 0 183 -36t130 -107q47 -65 66.5 -171t19.5 -388v-37v-37q0 -281 -19.5 -387t-66.5 -170q-51 -71 -130 -107.5t-183 -36.5t-183.5 36.5t-132.5 107.5q-47 65 -66.5 173.5t-19.5 420.5zM272 713 q0 -388 46.5 -484t170.5 -96q127 0 173.5 99t46.5 481q0 383 -47 482t-173 99q-124 0 -170.5 -96t-46.5 -485z" />
<glyph unicode="1" d="M215 1057v196q43 21 103.5 62.5t152.5 111.5h141v-1427h-184v1208q-23 -21 -71 -55.5t-142 -95.5z" />
<glyph unicode="2" d="M109 0v182l438 627q62 90 97.5 174t35.5 139q0 80 -50.5 128t-133.5 48q-91 0 -133.5 -54.5t-49.5 -178.5h-198q0 6 -1 19.5t-1 19.5q0 167 100 256.5t289 89.5q173 0 269.5 -84t96.5 -233q0 -103 -50.5 -224.5t-153.5 -267.5l-338 -471h548v-170h-765z" />
<glyph unicode="3" d="M82 350v27h196q4 -120 51.5 -181t137.5 -61q106 0 159.5 66t53.5 198q0 135 -65.5 200t-200.5 65h-31v170q143 0 211 57.5t68 179.5q0 111 -45.5 165t-139.5 54q-87 0 -133.5 -52.5t-46.5 -152.5h-193v23q0 157 96 249.5t259 92.5q187 0 286 -92.5t99 -265.5 q0 -154 -64.5 -244t-183.5 -103q135 -6 197.5 -89t62.5 -257q0 -211 -95.5 -317.5t-285.5 -106.5t-291.5 97t-101.5 278z" />
<glyph unicode="4" d="M86 358v207l401 862h250v-913h158v-156h-158v-358h-184v358h-467zM223 512h332l18 766z" />
<glyph unicode="5" d="M117 332h188q8 -107 52.5 -157t131.5 -50q100 0 145.5 81t45.5 257q0 180 -43.5 250.5t-149.5 70.5q-71 0 -114 -39t-54 -114h-188l14 796h660v-161h-471l-19 -432q44 52 102.5 78t133.5 26q160 0 236.5 -112t76.5 -349q0 -254 -98 -379t-297 -125q-169 0 -260.5 93.5 t-91.5 265.5z" />
<glyph unicode="6" d="M111 698q0 252 16 374.5t55 201.5q43 87 122.5 131.5t193.5 44.5q160 0 252 -84t92 -229v-13h-191q-6 86 -44 129t-107 43q-109 0 -154 -91.5t-45 -323.5q0 -13 1 -42t1 -44q34 60 91 92.5t128 32.5q172 0 260 -116t88 -341q0 -253 -89 -368t-283 -115q-217 0 -302 146.5 t-85 571.5zM307 483q0 -181 47 -263.5t150 -82.5q94 0 139 81t45 249q0 151 -46 223t-142 72q-95 0 -144 -71t-49 -208z" />
<glyph unicode="7" d="M100 1270v157h736v-163l-367 -1264h-207l383 1270h-545z" />
<glyph unicode="8" d="M104 397q0 148 62 240.5t178 120.5q-109 31 -165 113.5t-56 213.5q0 172 97.5 268.5t271.5 96.5q172 0 269 -95.5t97 -267.5q0 -133 -55.5 -216t-165.5 -113q118 -28 179 -120.5t61 -244.5q0 -196 -102 -307t-283 -111q-183 0 -285.5 112t-102.5 310zM287 401 q0 -130 53 -201t149 -71t149.5 69t53.5 191q0 146 -49 214.5t-154 68.5q-102 0 -152 -67.5t-50 -203.5zM301 1065q0 -111 52.5 -177.5t140.5 -66.5q82 0 135 68t53 176q0 111 -49.5 171t-140.5 60q-93 0 -142 -59t-49 -172z" />
<glyph unicode="9" d="M111 963q0 253 89 368t283 115q217 0 302 -146.5t85 -572.5q0 -251 -16.5 -374t-54.5 -201q-43 -88 -122.5 -132.5t-193.5 -44.5q-160 0 -252 84t-92 230v12h191q6 -86 44 -130t107 -44q109 0 154 92t45 326q0 13 -1 41.5t-1 44.5q-34 -61 -91 -93t-128 -32 q-172 0 -260 115.5t-88 341.5zM293 958q0 -151 46 -222.5t142 -71.5q94 0 142.5 70t48.5 208q0 182 -46.5 264t-148.5 82q-94 0 -139 -80.5t-45 -249.5z" />
<glyph unicode=":" horiz-adv-x="518" d="M162 0v227h194v-227h-194zM162 801v227h194v-227h-194z" />
<glyph unicode=";" horiz-adv-x="518" d="M66 -240l104 467h197l-162 -467h-139zM170 801v227h195v-227h-195z" />
<glyph unicode="&#x3c;" horiz-adv-x="1706" d="M264 559v103l1178 483v-127l-1000 -408l1000 -405v-129z" />
<glyph unicode="=" horiz-adv-x="1706" d="M254 360v117h1198v-117h-1198zM254 743v117h1198v-117h-1198z" />
<glyph unicode="&#x3e;" horiz-adv-x="1706" d="M264 76v129l1000 405l-1000 408v127l1178 -483v-103z" />
<glyph unicode="?" horiz-adv-x="807" d="M57 1161q0 162 94 251t265 89q159 0 244 -94t85 -270q0 -81 -24.5 -150t-97.5 -172q-18 -24 -64 -83.5t-67 -94.5q-13 -21 -18 -46t-5 -71v-24v-121h-164v227q0 53 6 80.5t21 48.5q24 38 66.5 94t56.5 76q48 72 68 131.5t20 126.5q0 95 -38.5 146t-109.5 51 q-75 0 -110.5 -65.5t-38.5 -208.5l-182 -1q-4 22 -5.5 42t-1.5 38zM291 0v205h194v-205h-194z" />
<glyph unicode="@" horiz-adv-x="2048" d="M113 522q0 163 50.5 309t149.5 269q146 176 349.5 267t453.5 91q165 0 311 -43.5t248 -124.5q129 -99 195.5 -230t66.5 -282q0 -169 -62.5 -308.5t-182.5 -236.5q-69 -55 -148.5 -83.5t-163.5 -28.5q-99 0 -148.5 39t-49.5 116q0 3 1 11t1 12q-51 -87 -127 -132.5 t-170 -45.5q-153 0 -233.5 85t-80.5 247q0 230 137 389t332 159q91 0 153.5 -39.5t96.5 -117.5l58 121h110l-141 -568q-6 -24 -9 -44t-3 -36q0 -44 27.5 -67t82.5 -23q45 0 100 24t103 64q89 76 139.5 196.5t50.5 254.5q0 266 -195.5 428t-518.5 162q-168 0 -312.5 -52 t-259.5 -153q-140 -122 -211 -282.5t-71 -354.5q0 -173 60.5 -304t186.5 -230q101 -81 240 -124.5t295 -43.5q172 0 334.5 48.5t296.5 139.5l45 -66q-147 -109 -313 -165t-347 -56q-191 0 -348 46.5t-276 138.5q-153 117 -228 272t-75 352zM713 446q0 -110 51 -169.5 t145 -59.5q102 0 183.5 70.5t109.5 185.5l60 242q-17 90 -72 140t-135 50q-146 0 -244 -131.5t-98 -327.5z" />
<glyph unicode="A" horiz-adv-x="1208" d="M31 0l463 1475h233l451 -1475h-213l-99 358h-522l-102 -358h-211zM393 532h422l-207 713z" />
<glyph unicode="B" horiz-adv-x="1139" d="M145 0v1475h420q222 0 329 -87.5t107 -267.5q0 -146 -63.5 -236.5t-183.5 -115.5q139 -20 214.5 -112t75.5 -242q0 -215 -108 -314.5t-344 -99.5h-447zM328 168h219q163 0 237 62.5t74 199.5q0 135 -73 199.5t-226 64.5h-231v-526zM328 860h198q151 0 218 58.5t67 189.5 q0 116 -64.5 168.5t-209.5 52.5h-209v-469z" />
<glyph unicode="C" horiz-adv-x="1098" d="M109 770q0 227 21.5 349t72.5 204q50 82 144.5 126t219.5 44q201 0 306.5 -112.5t105.5 -327.5h-207v22q0 132 -52.5 197t-158.5 65q-67 0 -117.5 -26t-81.5 -76t-44 -151.5t-13 -385.5q0 -335 56.5 -449t199.5 -114q114 0 168.5 74.5t54.5 228.5v17h205v-33 q0 -210 -111 -327.5t-309 -117.5q-94 0 -175.5 27t-131.5 74q-84 77 -118.5 222t-34.5 470z" />
<glyph unicode="D" horiz-adv-x="1155" d="M135 0v1475h354q200 0 283.5 -23.5t142.5 -79.5q75 -70 105.5 -192t30.5 -459q0 -246 -20.5 -363.5t-67.5 -187.5q-63 -94 -156.5 -132t-317.5 -38h-354zM332 168h207q107 0 168.5 24t93.5 78q31 54 45 163t14 315q0 149 -8.5 261t-20.5 142q-32 89 -97.5 126.5 t-194.5 37.5h-207v-1147z" />
<glyph unicode="E" horiz-adv-x="950" d="M135 0v1475h737v-162h-542v-473h526v-166h-526v-512h542v-162h-737z" />
<glyph unicode="F" horiz-adv-x="934" d="M135 0v1475h709v-162h-514v-473h489v-166h-489v-674h-195z" />
<glyph unicode="G" horiz-adv-x="1163" d="M104 764q0 225 23 350t76 209q54 85 153 129.5t236 44.5q209 0 323.5 -110t114.5 -310v-4h-200q-2 130 -64.5 198t-179.5 68q-161 0 -221 -113t-60 -485q0 -361 66.5 -480.5t236.5 -119.5q43 0 100.5 7t133.5 22v436h-205v170h397v-739q-135 -32 -238 -47t-190 -15 q-130 0 -220.5 31t-147.5 94q-72 79 -103 225.5t-31 438.5z" />
<glyph unicode="H" horiz-adv-x="1165" d="M135 0v1475h195v-631h506v631h194v-1475h-194v674h-506v-674h-195z" />
<glyph unicode="I" horiz-adv-x="465" d="M133 0v1475h199v-1475h-199z" />
<glyph unicode="J" horiz-adv-x="979" d="M66 403q0 11 1 30.5t1 29.5h204q-1 -12 -1.5 -25.5t-0.5 -38.5q0 -132 44 -194t137 -62q118 0 163 75t45 353v904h193v-1026q0 -142 -15 -210.5t-51 -121.5q-48 -72 -130.5 -107t-202.5 -35q-200 0 -293.5 103.5t-93.5 324.5z" />
<glyph unicode="K" horiz-adv-x="989" d="M137 0v1475h189v-621l438 621h213l-471 -662l506 -813h-221l-465 766v-766h-189z" />
<glyph unicode="L" horiz-adv-x="868" d="M135 0v1475h193v-1305h503v-170h-696z" />
<glyph unicode="M" horiz-adv-x="1630" d="M135 0v1475h314l317 -1014q9 -32 24.5 -90.5t36.5 -143.5q15 72 29.5 133.5t26.5 102.5l309 1012h303v-1475h-180v1055q0 90 1 162t3 147l-416 -1364h-166l-426 1378q3 -79 4.5 -170t1.5 -194v-1014h-182z" />
<glyph unicode="N" horiz-adv-x="1262" d="M135 0v1475h277l542 -1305q-4 71 -6 138.5t-2 131.5v1035h180v-1475h-264l-567 1341q8 -95 12 -163t4 -115v-1063h-176z" />
<glyph unicode="O" horiz-adv-x="1167" d="M115 737q0 257 17 376t58 190q54 95 154.5 144.5t239.5 49.5q111 0 200.5 -34t147.5 -99q66 -76 93.5 -203.5t27.5 -439.5q0 -235 -18 -356.5t-58 -192.5q-56 -96 -156.5 -146.5t-236.5 -50.5q-111 0 -200.5 34.5t-147.5 99.5q-67 74 -94 199.5t-27 428.5zM313 737 q0 -221 9.5 -310t31.5 -140q33 -74 89 -110t139 -36q153 0 212.5 111t59.5 485t-59.5 484t-212.5 110q-67 0 -118.5 -24.5t-82.5 -71.5q-37 -56 -52.5 -147.5t-15.5 -350.5z" />
<glyph unicode="P" horiz-adv-x="1028" d="M135 0v1475h402q236 0 330 -91t94 -315q0 -212 -92 -311t-289 -99h-250v-659h-195zM330 825h153q168 0 224.5 52.5t56.5 193.5q0 132 -51 185t-178 53h-205v-484z" />
<glyph unicode="Q" horiz-adv-x="1167" d="M113 737q0 265 16.5 380.5t56.5 185.5q54 95 154.5 144.5t239.5 49.5q111 0 200 -34t148 -99q66 -75 93.5 -196t27.5 -400v-55q0 -277 -25.5 -386t-87.5 -177q51 10 98.5 15t85.5 5h68v-170h-340q-15 0 -100 -12.5t-156 -12.5q-120 0 -211 34t-150 100q-65 73 -91.5 196 t-26.5 432zM311 737q0 -234 9 -317.5t30 -132.5q32 -73 89 -109.5t141 -36.5q68 0 120.5 25t83.5 72q36 54 51 142.5t15 317.5v39q0 223 -9.5 310.5t-31.5 138.5q-32 74 -88.5 109.5t-140.5 35.5q-69 0 -121 -24.5t-82 -71.5q-36 -55 -51 -143t-15 -316v-39z" />
<glyph unicode="R" horiz-adv-x="1110" d="M131 0v1475h387q236 0 343.5 -85t107.5 -270q0 -147 -62.5 -235.5t-191.5 -124.5q119 -13 169 -82.5t50 -226.5q0 -31 -1 -80.5t-1 -69.5q0 -84 9.5 -158.5t29.5 -142.5h-201q-30 99 -32 329q-1 83 -3 128q-3 121 -42.5 169t-133.5 48h-233v-674h-195zM326 834h143 q160 0 232.5 62t72.5 200q0 113 -57 169t-172 56h-219v-487z" />
<glyph unicode="S" horiz-adv-x="1079" d="M76 381q0 7 1 22t1 23h213v-27q0 -141 52.5 -205.5t166.5 -64.5q108 0 178 64t70 161q0 127 -274 298q-39 25 -60 38q-214 137 -272 222.5t-58 209.5q0 168 120.5 272.5t315.5 104.5q200 0 306 -99.5t106 -287.5v-37h-203v31q0 118 -54.5 179t-162.5 61q-99 0 -164 -57.5 t-65 -143.5q0 -142 294 -330q54 -34 83 -53q175 -114 230.5 -193t55.5 -186q0 -195 -117.5 -301.5t-332.5 -106.5q-214 0 -322 102t-108 304z" />
<glyph unicode="T" horiz-adv-x="958" d="M25 1323v152h909v-152h-352v-1323h-195v1323h-362z" />
<glyph unicode="U" horiz-adv-x="1186" d="M135 541v43v891h184v-953q0 -119 10 -172.5t33 -91.5q37 -61 93.5 -91t136.5 -30t137.5 30t93.5 91q22 37 31.5 90.5t9.5 171.5v33v922h187v-924q0 -309 -107.5 -442.5t-351.5 -133.5q-130 0 -219.5 40.5t-151.5 125.5q-46 65 -66 147.5t-20 252.5z" />
<glyph unicode="V" horiz-adv-x="1069" d="M0 1475h221l264 -1100l5 -20q33 -139 45 -205q8 37 21 101q20 92 28 122l280 1102h205l-418 -1475h-233z" />
<glyph unicode="W" horiz-adv-x="1821" d="M18 1475h197l252 -1115q8 -33 16 -85t19 -146q20 110 43 216q1 6 2 9l266 1121h205l254 -1102q12 -54 21 -115t16 -129q6 48 16.5 103t28.5 130l256 1113h190l-377 -1475h-231l-217 924q-18 71 -33.5 169.5t-30.5 227.5q-19 -181 -73 -390l-2 -9l-224 -922h-235z" />
<glyph unicode="X" horiz-adv-x="1100" d="M12 0l414 772l-381 703h223l281 -560l297 560h209l-385 -699l417 -776h-227l-313 631l-314 -631h-221z" />
<glyph unicode="Y" horiz-adv-x="977" d="M-10 1475h223l281 -695l294 695h197l-410 -875v-600h-198v618z" />
<glyph unicode="Z" horiz-adv-x="930" d="M35 0v201l672 1112h-627v162h829v-185l-676 -1120h676v-170h-874z" />
<glyph unicode="[" horiz-adv-x="592" d="M188 -324v1799h324v-119h-166v-1561h166v-119h-324z" />
<glyph unicode="\" horiz-adv-x="569" d="M-70 1497h125l598 -1687h-125z" />
<glyph unicode="]" horiz-adv-x="592" d="M80 -205h166v1561h-166v119h323v-1799h-323v119z" />
<glyph unicode="^" horiz-adv-x="2048" d="M422 901l520 557h162l520 -557h-158l-442 438l-442 -438h-160z" />
<glyph unicode="_" horiz-adv-x="1024" d="M0 -365h1024v-118h-1024v118z" />
<glyph unicode="`" horiz-adv-x="1024" d="M250 1511h201l204 -348h-120z" />
<glyph unicode="a" horiz-adv-x="920" d="M76 305q0 177 114.5 267t341.5 90h99v51q0 121 -35.5 167t-122.5 46q-93 0 -140.5 -39.5t-47.5 -116.5v-10h-189v20q0 134 92.5 203.5t272.5 69.5q178 0 262 -72.5t84 -226.5v-480q0 -71 4.5 -139.5t13.5 -134.5h-176l-12 129q-52 -67 -121 -103t-145 -36q-131 0 -213 87 t-82 228zM252 322q0 -76 46 -126.5t116 -50.5q104 0 161.5 81.5t57.5 232.5v80q-213 0 -297 -49.5t-84 -167.5z" />
<glyph unicode="b" horiz-adv-x="961" d="M101 0q5 36 7.5 80t2.5 104v1291h178v-560q44 70 105 105t141 35q171 0 253 -135t82 -418q0 -271 -83.5 -400t-260.5 -129q-81 0 -140.5 30.5t-94.5 90.5l-23 -94h-167zM287 522q0 -220 47 -316.5t151 -96.5q112 0 157.5 87.5t45.5 315.5q0 204 -46 298.5t-146 94.5 q-109 0 -159 -91.5t-50 -291.5z" />
<glyph unicode="c" horiz-adv-x="924" d="M90 512q0 285 91 412t294 127q164 0 264.5 -87.5t100.5 -230.5v-22h-174q0 90 -47.5 140t-133.5 50q-117 0 -166 -86t-49 -303q0 -211 47.5 -299t157.5 -88q86 0 138 60.5t55 162.5h177q-3 -177 -100.5 -275t-269.5 -98q-203 0 -294 126t-91 411z" />
<glyph unicode="d" horiz-adv-x="961" d="M86 502q0 283 82 418t254 135q79 0 140.5 -35t105.5 -105v560h178v-1291q0 -79 2 -116t6 -66h-174l-10 100q-49 -64 -109 -94.5t-137 -30.5q-174 0 -256 127t-82 398zM266 518q0 -230 46.5 -319.5t158.5 -89.5q103 0 150 95t47 308q0 210 -49 301.5t-158 91.5 q-99 0 -147 -95t-48 -292z" />
<glyph unicode="e" horiz-adv-x="924" d="M90 522q0 277 92 403t293 126q191 0 280 -100.5t89 -317.5v-160h-572v-59q0 -152 48.5 -220.5t154.5 -68.5q81 0 130.5 51t62.5 146h176q-8 -163 -105.5 -255t-263.5 -92q-206 0 -295.5 126t-89.5 421zM273 606h397v88q0 116 -48 176t-141 60q-104 0 -154.5 -78 t-53.5 -246z" />
<glyph unicode="f" horiz-adv-x="526" d="M8 901v127h144v176v66q0 73 16.5 110t54.5 64q41 27 101 40t149 13h45v-139q-116 -3 -154 -36t-38 -171v-123h192v-127h-192v-901h-174v901h-144z" />
<glyph unicode="g" horiz-adv-x="967" d="M86 528q0 272 82.5 399.5t257.5 127.5q78 0 139 -31t109 -94l10 98h178q-5 -35 -7.5 -78.5t-2.5 -103.5v-901q0 -96 -14 -147.5t-45 -90.5q-45 -57 -115.5 -82.5t-181.5 -25.5q-160 0 -250 74.5t-96 211.5h200q2 -70 42 -111.5t106 -41.5q97 0 136.5 50t39.5 187v148 q-55 -73 -115 -107.5t-131 -34.5q-177 0 -259.5 133.5t-82.5 419.5zM268 518q0 -209 47 -301t152 -92q111 0 163 94t52 299q0 218 -49 312t-160 94q-112 0 -158.5 -88.5t-46.5 -317.5z" />
<glyph unicode="h" horiz-adv-x="948" d="M115 0v1475h176v-566q57 76 122 110t152 34q127 0 201 -74.5t74 -202.5v-776h-178v657q0 150 -38.5 205.5t-131.5 55.5q-105 0 -153 -77.5t-48 -246.5v-594h-176z" />
<glyph unicode="i" horiz-adv-x="428" d="M129 0v1028h170v-1028h-170zM129 1286v189h170v-189h-170z" />
<glyph unicode="j" horiz-adv-x="438" d="M8 -254h23q63 0 84.5 22.5t21.5 88.5v1171h170v-1145v-51q0 -85 -13.5 -122.5t-45.5 -63.5q-29 -24 -72 -36.5t-96 -12.5q-18 0 -36 1.5t-36 4.5v143zM137 1286v189h170v-189h-170z" />
<glyph unicode="k" horiz-adv-x="872" d="M117 0v1475h176v-854l313 407h197l-348 -426l417 -602h-215l-364 553v-553h-176z" />
<glyph unicode="l" horiz-adv-x="399" d="M111 0v1475h176v-1475h-176z" />
<glyph unicode="m" horiz-adv-x="1497" d="M105 1028h180l8 -119q54 75 119.5 109.5t152.5 34.5q97 0 166 -45.5t98 -126.5q45 85 116.5 128.5t168.5 43.5q127 0 199.5 -74t72.5 -203v-776h-176v657q0 150 -38 205.5t-132 55.5q-103 0 -151.5 -78t-48.5 -246v-594h-178v657q0 150 -38.5 205.5t-131.5 55.5 q-105 0 -153 -77.5t-48 -246.5v-594h-176v866q0 33 -2.5 73t-7.5 89z" />
<glyph unicode="n" horiz-adv-x="948" d="M105 1028h180l8 -119q54 75 119.5 109.5t152.5 34.5q127 0 201 -74.5t74 -202.5v-776h-178v657q0 150 -38.5 205.5t-131.5 55.5q-105 0 -153 -77.5t-48 -246.5v-594h-176v866q0 33 -2.5 73t-7.5 89z" />
<glyph unicode="o" horiz-adv-x="950" d="M88 516q0 281 92.5 408t294.5 127q203 0 294 -126.5t91 -410.5t-91.5 -411.5t-293.5 -127.5q-204 0 -295.5 127.5t-91.5 413.5zM268 514q0 -211 48 -300t159 -89q110 0 157.5 89t47.5 298q0 212 -47.5 300.5t-157.5 88.5t-158.5 -90t-48.5 -297z" />
<glyph unicode="p" horiz-adv-x="961" d="M104 1028h181l10 -98q48 63 107.5 94t134.5 31q173 0 254 -127t81 -400q0 -283 -82 -418t-253 -135q-79 0 -140.5 35.5t-105.5 106.5v-506h-178v1235q0 79 -2 116t-7 66zM289 510q0 -200 51 -292.5t160 -92.5q99 0 144.5 93.5t45.5 299.5q0 229 -46 317.5t-157 88.5 q-104 0 -151 -97t-47 -317z" />
<glyph unicode="q" horiz-adv-x="961" d="M86 528q0 272 82 399.5t256 127.5q76 0 136 -31t108 -94l10 98h176q-4 -29 -6 -65.5t-2 -116.5v-1235h-178v506q-45 -71 -106.5 -106.5t-139.5 -35.5q-172 0 -254 135t-82 418zM268 518q0 -204 46.5 -298.5t146.5 -94.5q108 0 158.5 92t50.5 293q0 220 -47 317t-152 97 q-111 0 -157 -88.5t-46 -317.5z" />
<glyph unicode="r" horiz-adv-x="592" d="M98 1030h176l17 -135q28 77 94 118.5t164 41.5q5 0 15.5 -1t17.5 -1v-181q-9 0 -24 1t-21 1q-133 0 -189.5 -57.5t-56.5 -193.5v-623h-176v856q0 12 -11 118q-4 36 -6 56z" />
<glyph unicode="s" horiz-adv-x="877" d="M76 313h192q3 -94 47 -143t127 -49q76 0 122 37.5t46 99.5q0 46 -34.5 84t-114.5 80l-187 96q-101 53 -142.5 107.5t-41.5 134.5q0 132 98 213.5t258 81.5q156 0 247 -74t91 -201v-18h-188q0 76 -44 119t-122 43q-69 0 -112.5 -36.5t-43.5 -92.5q0 -39 24 -68t81 -57 l170 -84q146 -73 199 -137.5t53 -159.5q0 -143 -99.5 -228.5t-265.5 -85.5q-177 0 -268 86t-92 252z" />
<glyph unicode="t" horiz-adv-x="584" d="M14 901v127h156v207l176 84v-291h205v-127h-205v-616q0 -83 25.5 -114.5t93.5 -31.5q24 0 80 4h6l-1 -133q-41 -9 -77 -13.5t-67 -4.5q-130 0 -183 51t-53 180v678h-156z" />
<glyph unicode="u" horiz-adv-x="948" d="M106 252v776h179v-655q0 -149 38 -204.5t132 -55.5q104 0 152 76.5t48 244.5v594h176v-866q1 -34 3.5 -74t6.5 -88h-179l-9 121q-54 -75 -120 -110.5t-152 -35.5q-127 0 -201 74.5t-74 202.5z" />
<glyph unicode="v" horiz-adv-x="901" d="M18 1028h205l162 -592q20 -74 36 -151.5t28 -159.5q32 140 73 280q7 23 9 30l165 593h185l-322 -1028h-219z" />
<glyph unicode="w" horiz-adv-x="1470" d="M20 1028h183l139 -592q19 -80 32.5 -150.5t22.5 -137.5q17 70 39.5 169t28.5 119l166 592h211l162 -604q6 -21 36 -166q14 -69 23 -110q7 50 21.5 119t37.5 165l146 596h180l-272 -1028h-222l-170 660q-5 20 -20 89.5t-33 163.5q-15 -81 -28.5 -146.5t-24.5 -107.5 l-174 -659h-217z" />
<glyph unicode="x" horiz-adv-x="915" d="M12 0l328 549l-297 479h203l209 -362l215 362h192l-311 -487l350 -541h-207l-254 424l-233 -424h-195z" />
<glyph unicode="y" horiz-adv-x="930" d="M20 1028h207l246 -813l244 813h190l-473 -1417h-174l113 389z" />
<glyph unicode="z" horiz-adv-x="696" d="M25 0v164l450 731h-424v133h623v-133l-469 -758h469v-137h-649z" />
<glyph unicode="{" horiz-adv-x="1024" d="M172 467v127q8 0 23 -1t22 -1q134 0 189 61.5t55 214.5v244q0 153 22.5 215.5t77.5 97.5q42 28 102 40t160 12h35v-127q-8 0 -23 1t-22 1q-121 0 -164 -47t-43 -197v-242q0 -166 -43.5 -235.5t-154.5 -100.5q111 -30 154.5 -99.5t43.5 -235.5v-242q0 -149 43.5 -195.5 t169.5 -46.5h39v-125h-35q-99 0 -159.5 12t-102.5 40q-55 36 -77.5 100t-22.5 213v244q0 152 -55 213t-189 61q-7 0 -22 -1t-23 -1z" />
<glyph unicode="|" horiz-adv-x="1024" d="M449 -483v2048h126v-2048h-126z" />
<glyph unicode="}" horiz-adv-x="1024" d="M166 -289q8 0 23 -1t22 -1q120 0 163.5 47.5t43.5 198.5v240q0 166 43.5 235.5t154.5 99.5q-111 31 -154.5 100.5t-43.5 235.5v242q0 149 -44 196.5t-169 47.5h-39v125h35q100 0 161 -12.5t103 -39.5q54 -35 76 -98t22 -215v-244q0 -152 55.5 -214t190.5 -62q7 0 22 1 t23 1v-127q-8 0 -23 1t-22 1q-135 0 -190.5 -62t-55.5 -214v-242q0 -153 -22 -216.5t-76 -99.5q-39 -26 -97.5 -37.5t-160.5 -11.5h-41v125z" />
<glyph unicode="~" horiz-adv-x="1706" d="M178 461v133q105 73 202 109t185 36q56 0 116.5 -12.5t174.5 -52.5q14 -5 44 -16q158 -58 245 -58q84 0 174.5 37t210.5 121v-131q-101 -72 -197.5 -108t-189.5 -36q-43 0 -90.5 9t-100.5 26q-30 10 -87 31q-202 72 -302 72q-83 0 -173.5 -37.5t-211.5 -122.5z" />
<glyph d="M-18 815l51 119h104q0 4 1 12.5t1 14.5q0 261 104 396.5t304 135.5q175 0 269.5 -106t101.5 -310h-189q0 131 -46.5 195.5t-141.5 64.5q-118 0 -173 -96.5t-55 -306.5h402l-51 -119h-351v-160h277l-51 -118l-226 -1q2 -205 57.5 -303t170.5 -98q99 0 149 73t52 220h184 v-16q0 -203 -101 -319t-276 -116q-204 0 -305.5 138.5t-106.5 420.5l-133 1l53 118h78v160h-153z" />
<glyph unicode="&#x20ac;" d="M-18 815l51 119h104q0 4 1 12.5t1 14.5q0 261 104 396.5t304 135.5q175 0 269.5 -106t101.5 -310h-189q0 131 -46.5 195.5t-141.5 64.5q-118 0 -173 -96.5t-55 -306.5h402l-51 -119h-351v-160h277l-51 -118l-226 -1q2 -205 57.5 -303t170.5 -98q99 0 149 73t52 220h184 v-16q0 -203 -101 -319t-276 -116q-204 0 -305.5 138.5t-106.5 420.5l-133 1l53 118h78v160h-153z" />
<glyph unicode="&#xa0;" />
<glyph unicode="&#xa1;" horiz-adv-x="616" d="M197 0l41 1124h143l39 -1124h-223zM215 1276v199h191v-199h-191z" />
<glyph unicode="&#xa2;" d="M111 512q0 284 91.5 411.5t295.5 127.5q38 0 78 -6.5t79 -18.5l60 148h92l-78 -187q68 -50 101.5 -111.5t33.5 -136.5q0 -5 -1 -14.5t-1 -13.5h-157q-2 55 -11 85.5t-27 44.5l-284 -681q24 -18 52 -26.5t63 -8.5q91 0 145 59.5t58 163.5h167q-3 -176 -100.5 -274.5 t-269.5 -98.5q-49 0 -93.5 8.5t-85.5 24.5l-63 -153h-92l84 196q-72 65 -104.5 173.5t-32.5 287.5zM285 520q0 -114 8.5 -178.5t28.5 -108.5l271 654q-20 7 -40.5 10.5t-44.5 3.5q-122 0 -172.5 -85t-50.5 -296z" />
<glyph unicode="&#xa3;" d="M84 0v166h145v516h-145v158h145v149q0 144 13.5 208.5t44.5 111.5q46 71 123.5 108t179.5 37q148 0 232.5 -86t84.5 -238v-6h-198q-7 89 -40.5 128.5t-103.5 39.5q-77 0 -115 -54t-38 -163v-235h284v-158h-284v-516h493v-166h-821z" />
<glyph unicode="&#xa4;" d="M-18 815l51 119h104q0 4 1 12.5t1 14.5q0 261 104 396.5t304 135.5q175 0 269.5 -106t101.5 -310h-189q0 131 -46.5 195.5t-141.5 64.5q-118 0 -173 -96.5t-55 -306.5h402l-51 -119h-351v-160h277l-51 -118l-226 -1q2 -205 57.5 -303t170.5 -98q99 0 149 73t52 220h184 v-16q0 -203 -101 -319t-276 -116q-204 0 -305.5 138.5t-106.5 420.5l-133 1l53 118h78v160h-153z" />
<glyph unicode="&#xa5;" horiz-adv-x="956" d="M6 1427h207l274 -673l287 673h187l-203 -432h174v-108h-225l-95 -182h320v-109h-365v-596h-186v596h-358v109h311l-84 182h-227v108h176z" />
<glyph unicode="&#xa6;" horiz-adv-x="1024" d="M449 -350v758h126v-758h-126zM449 674v758h126v-758h-126z" />
<glyph unicode="&#xa7;" d="M152 745q0 64 51.5 126t163.5 133q-86 48 -129 109.5t-43 135.5q0 112 91 180t242 68q73 0 132 -9.5t102 -27.5v-129q-69 22 -130.5 33.5t-109.5 11.5q-80 0 -125 -31t-45 -85q0 -92 192 -184q45 -22 68 -34q114 -58 160.5 -112t46.5 -125q0 -77 -51.5 -143t-155.5 -121 q127 -76 170 -134t43 -141q0 -134 -94 -211.5t-258 -77.5q-81 0 -155 14t-130 40v147q74 -28 143 -42.5t132 -14.5q99 0 155 36t56 99q0 49 -48 92t-223 129q-159 80 -205 134.5t-46 133.5zM319 762q0 -42 42 -80.5t133 -79.5q77 43 121 91t44 87q0 40 -43 76.5t-137 75.5 q-85 -51 -122.5 -91t-37.5 -79z" />
<glyph unicode="&#xa8;" horiz-adv-x="1024" d="M256 1223v209h182v-209h-182zM586 1223v209h182v-209h-182z" />
<glyph unicode="&#xa9;" horiz-adv-x="1706" d="M119 725q0 145 56.5 279.5t162.5 242.5q102 104 234 158.5t280 54.5q151 0 285 -55t239 -160q102 -102 156.5 -236t54.5 -284q0 -151 -54 -283t-157 -233q-109 -106 -244.5 -162.5t-279.5 -56.5q-146 0 -278 55.5t-238 161.5q-106 105 -161.5 238.5t-55.5 279.5zM207 725 q0 -127 49 -244t141 -211q93 -92 209.5 -141t245.5 -49t248.5 50t214.5 142q91 90 138.5 205.5t47.5 247.5q0 130 -49 249t-139 210q-92 92 -210 140t-251 48q-132 0 -247.5 -47.5t-205.5 -138.5q-93 -95 -142.5 -214t-49.5 -247zM465 721q0 208 107.5 332.5t287.5 124.5 q137 0 230 -74.5t104 -192.5h-129q-15 77 -70.5 120.5t-138.5 43.5q-117 0 -182.5 -92.5t-65.5 -259.5q0 -160 66.5 -252t181.5 -92q87 0 145.5 48.5t73.5 133.5h129q-11 -127 -109 -207t-245 -80q-176 0 -280.5 121t-104.5 326z" />
<glyph unicode="&#xaa;" horiz-adv-x="690" d="M57 967q0 124 86 187t256 63h74v36q0 85 -26.5 116.5t-92.5 31.5q-69 0 -105 -27.5t-36 -81.5v-6h-141v14q0 94 69.5 142.5t204.5 48.5q134 0 197 -50.5t63 -158.5v-336q0 -49 3 -98t9 -94h-131l-10 90q-37 -47 -88.5 -71.5t-109.5 -24.5q-98 0 -160 60.5t-62 158.5z M188 979q0 -53 35 -88t88 -35q78 0 121 57t43 162v55q-159 0 -223 -34t-64 -117z" />
<glyph unicode="&#xab;" horiz-adv-x="825" d="M66 512l186 397h158l-158 -397l158 -393h-158zM412 512l182 397h164l-164 -397l164 -393h-164z" />
<glyph unicode="&#xac;" horiz-adv-x="1706" d="M254 741v117h1198v-502h-115v385h-1083z" />
<glyph unicode="&#xad;" horiz-adv-x="569" d="M68 442v150h434v-150h-434z" />
<glyph unicode="&#xae;" horiz-adv-x="1706" d="M119 725q0 147 57 282t164 242q101 103 232 157t280 54q150 0 284 -55.5t240 -161.5q102 -102 156.5 -235.5t54.5 -282.5q0 -151 -54.5 -283t-158.5 -233q-109 -106 -243.5 -162.5t-278.5 -56.5q-145 0 -278.5 56t-239.5 163q-105 104 -160 237t-55 279zM207 725 q0 -127 49 -244t141 -211q91 -92 208 -141t245 -49q131 0 249.5 48.5t213.5 141.5q91 90 139.5 206t48.5 245q0 133 -48 251.5t-138 209.5q-94 93 -211.5 141.5t-251.5 48.5q-132 0 -247 -47t-204 -137q-94 -95 -144 -214t-50 -249zM561 317v840h311q178 0 264.5 -57 t86.5 -174q0 -89 -53 -148.5t-144 -75.5l188 -385h-157l-176 365h-179v-365h-141zM702 774h148q123 0 175 33t52 108q0 79 -54.5 114.5t-176.5 35.5h-144v-291z" />
<glyph unicode="&#xaf;" horiz-adv-x="1024" d="M264 1262v133h498v-133h-498z" />
<glyph unicode="&#xb0;" horiz-adv-x="674" d="M55 1171q0 119 82.5 201t200.5 82q117 0 200 -83t83 -200q0 -116 -83.5 -199t-201.5 -83t-199.5 82t-81.5 200zM135 1171q0 -84 59.5 -143t143.5 -59t142.5 59t58.5 143t-58.5 142.5t-142.5 58.5t-143.5 -58.5t-59.5 -142.5z" />
<glyph unicode="&#xb1;" horiz-adv-x="1706" d="M254 41v117h1198v-117h-1198zM254 719v117h541v344h118v-344h539v-117h-539v-344h-118v344h-541z" />
<glyph unicode="&#xb2;" horiz-adv-x="647" d="M72 571v109l288 377q42 53 65.5 104t23.5 84q0 47 -33.5 76t-87.5 29q-60 0 -88 -32.5t-33 -106.5l-131 -1q0 5 -1 12.5t-1 10.5q0 101 66.5 155t191.5 54q113 0 177 -50.5t64 -140.5q0 -60 -33 -132.5t-102 -162.5l-223 -282h363v-103h-506z" />
<glyph unicode="&#xb3;" horiz-adv-x="647" d="M53 782v15h131q2 -70 33.5 -107t89.5 -37q71 0 106.5 39.5t35.5 118.5q0 81 -43.5 119.5t-133.5 38.5h-20v102q95 0 139.5 35t44.5 108q0 67 -29.5 99.5t-91.5 32.5q-58 0 -88 -31.5t-30 -91.5h-127v14q0 94 63 149.5t170 55.5q123 0 188.5 -55.5t65.5 -159.5 q0 -93 -42.5 -147t-120.5 -62q88 -3 129.5 -53t41.5 -154q0 -126 -63 -190t-189 -64t-193 58t-67 167z" />
<glyph unicode="&#xb4;" horiz-adv-x="1024" d="M369 1163l204 348h201l-285 -348h-120z" />
<glyph unicode="&#xb5;" horiz-adv-x="1128" d="M-111 -426l316 1495h157l-126 -595q-8 -33 -11.5 -67t-3.5 -71q0 -109 57 -168t160 -59q125 0 208 101t128 308l121 551h156l-162 -754q-12 -52 -17.5 -84t-5.5 -51q0 -32 18.5 -48.5t53.5 -16.5q9 0 17.5 0.5t17.5 1.5l-27 -125q-21 -5 -44 -7.5t-48 -2.5 q-70 0 -104.5 35t-40.5 112q-41 -70 -117 -108.5t-172 -38.5q-87 0 -152.5 34t-109.5 103l-113 -545h-156z" />
<glyph unicode="&#xb6;" horiz-adv-x="1024" d="M76 1130q0 157 107.5 253t285.5 96h479v-78h-125v-1401h-94v1401h-182v-1401h-96v782q-173 8 -274 102.5t-101 245.5z" />
<glyph unicode="&#xb7;" horiz-adv-x="492" d="M127 713q0 48 32.5 81t80.5 33q49 0 81.5 -32.5t32.5 -81.5t-32.5 -81t-81.5 -32t-81 32t-32 81z" />
<glyph unicode="&#xb8;" horiz-adv-x="1024" d="M258 -326q79 -18 144 -28.5t104 -10.5q60 0 89.5 20.5t29.5 61.5q0 44 -32 65t-99 21q-21 0 -32 -0.5t-22 -0.5v198h76v-102h29q109 0 166 -46t57 -135q0 -91 -64 -139.5t-186 -48.5q-50 0 -117 11.5t-143 33.5v100z" />
<glyph unicode="&#xb9;" horiz-adv-x="647" d="M141 1206v117q26 11 61.5 32.5t108.5 71.5h95v-856h-123l-1 725q-14 -13 -46 -33.5t-95 -56.5z" />
<glyph unicode="&#xba;" horiz-adv-x="713" d="M66 1114q0 196 69.5 285.5t220.5 89.5q152 0 220.5 -88.5t68.5 -286.5q0 -199 -68 -288t-221 -89t-221.5 88.5t-68.5 288.5zM201 1114q0 -147 36 -209.5t119 -62.5q82 0 118 62.5t36 207.5q0 148 -35.5 210t-118.5 62q-82 0 -118.5 -63t-36.5 -207z" />
<glyph unicode="&#xbb;" horiz-adv-x="825" d="M66 119l163 393l-163 397h163l185 -397l-185 -393h-163zM416 119l155 393l-155 397h155l187 -397l-187 -393h-155z" />
<glyph unicode="&#xbc;" horiz-adv-x="1579" d="M135 1329q28 12 67 35.5t93 60.5h90v-798h-117v676q-22 -18 -129 -82l-3 -2zM276 -25l904 1475h120l-903 -1475h-121zM1014 201v116l254 482h157v-510h99v-88h-99v-201h-116v201h-295zM1102 287h209l10 428z" />
<glyph unicode="&#xbd;" horiz-adv-x="1579" d="M135 1329q28 12 67 35.5t93 60.5h90v-798h-117v676q-22 -18 -129 -82l-3 -2zM276 -25l904 1475h120l-903 -1475h-121zM1028 0v102l277 351q39 50 61.5 97t22.5 79q0 44 -32.5 71t-84.5 27q-56 0 -83 -31t-32 -100h-125v22q0 94 63 143.5t181 49.5q110 0 170.5 -46.5 t60.5 -129.5q0 -58 -32 -127.5t-97 -149.5l-213 -264h346v-94h-483z" />
<glyph unicode="&#xbe;" horiz-adv-x="1579" d="M51 823v15l125 -1q2 -67 32 -101t87 -34q66 0 99.5 37t33.5 111q0 75 -41 111t-127 36h-18v97q89 0 131.5 32t42.5 101q0 62 -28.5 92.5t-86.5 30.5q-55 0 -85 -30t-30 -85h-120v12q0 88 60 139.5t163 51.5q119 0 181 -51.5t62 -149.5q0 -86 -41 -136t-116 -57 q85 -3 124.5 -49.5t39.5 -144.5q0 -118 -60 -178t-180 -60q-119 0 -183.5 55t-64.5 156zM276 -25l904 1475h120l-903 -1475h-121zM1014 201v116l254 482h157v-510h99v-88h-99v-201h-116v201h-295zM1102 287h209l10 428z" />
<glyph unicode="&#xbf;" horiz-adv-x="807" d="M76 338q0 81 24.5 150t98.5 171q18 26 65 85.5t68 93.5q10 17 15 39t5 61v41v121h164v-228q0 -53 -6 -80t-21 -49q-24 -38 -66 -94.5t-54 -74.5q-50 -75 -70 -134t-20 -125q0 -94 38 -145t109 -51q75 0 110.5 65t39.5 209h184q2 -15 3 -31.5t1 -48.5q0 -162 -93 -251 t-263 -89q-161 0 -246.5 94.5t-85.5 270.5zM336 1270v205h194v-205h-194z" />
<glyph unicode="&#xc0;" horiz-adv-x="1208" d="M31 0l463 1475h233l451 -1475h-213l-99 358h-522l-102 -358h-211zM393 532h422l-207 713zM342 1957h201l204 -348h-120z" />
<glyph unicode="&#xc1;" horiz-adv-x="1208" d="M31 0l463 1475h233l451 -1475h-213l-99 358h-522l-102 -358h-211zM393 532h422l-207 713zM461 1609l204 348h201l-285 -348h-120z" />
<glyph unicode="&#xc2;" horiz-adv-x="1208" d="M31 0l463 1475h233l451 -1475h-213l-99 358h-522l-102 -358h-211zM393 532h422l-207 713zM309 1609l197 348h196l197 -348h-123l-172 230l-174 -230h-121z" />
<glyph unicode="&#xc3;" horiz-adv-x="1208" d="M31 0l463 1475h233l451 -1475h-213l-99 358h-522l-102 -358h-211zM393 532h422l-207 713zM332 1656q18 103 64.5 153t123.5 50q14 0 25 -1.5t22 -4.5l91 -29q17 -5 28.5 -7.5t17.5 -2.5q34 0 56 18t34 56h82q-18 -103 -64.5 -156t-117.5 -53q-14 0 -29 2.5t-32 7.5 l-89 27q-15 4 -26 6t-20 2q-30 0 -51 -17t-33 -51h-82z" />
<glyph unicode="&#xc4;" horiz-adv-x="1208" d="M31 0l463 1475h233l451 -1475h-213l-99 358h-522l-102 -358h-211zM393 532h422l-207 713zM348 1669v209h182v-209h-182zM678 1669v209h182v-209h-182z" />
<glyph unicode="&#xc5;" horiz-adv-x="1208" d="M31 0l461 1462h237l449 -1462h-213l-99 358h-522l-102 -358h-211zM385 1747q0 94 65 159.5t158 65.5q95 0 160.5 -65t65.5 -160t-65 -159t-161 -64q-94 0 -158.5 64t-64.5 159zM393 532h422l-207 713zM487 1747q0 -50 36 -85.5t85 -35.5q51 0 87 35.5t36 85.5 q0 52 -35.5 87.5t-87.5 35.5q-51 0 -86 -35.5t-35 -87.5z" />
<glyph unicode="&#xc6;" horiz-adv-x="1548" d="M-12 0l547 1475h935v-162h-632l69 -473h563v-166h-542l78 -512h464v-162h-624l-49 356h-506l-129 -356h-174zM350 516h422l-115 813z" />
<glyph unicode="&#xc7;" horiz-adv-x="1098" d="M109 770q0 227 21.5 349t72.5 204q50 82 144.5 126t219.5 44q201 0 306.5 -112.5t105.5 -327.5h-207v22q0 132 -52.5 197t-158.5 65q-67 0 -117.5 -26t-81.5 -76t-44 -151.5t-13 -385.5q0 -335 56.5 -449t199.5 -114q114 0 168.5 74.5t54.5 228.5v17h205v-33 q0 -210 -111 -327.5t-309 -117.5q-94 0 -175.5 27t-131.5 74q-84 77 -118.5 222t-34.5 470zM295 -326q79 -18 144 -28.5t104 -10.5q60 0 89.5 20.5t29.5 61.5q0 44 -32 65t-99 21q-21 0 -32 -0.5t-22 -0.5v198h76v-102h29q109 0 166 -46t57 -135q0 -91 -64 -139.5 t-186 -48.5q-50 0 -117 11.5t-143 33.5v100z" />
<glyph unicode="&#xc8;" horiz-adv-x="950" d="M135 0v1475h737v-162h-542v-473h526v-166h-526v-512h542v-162h-737zM242 1957h201l204 -348h-120z" />
<glyph unicode="&#xc9;" horiz-adv-x="950" d="M135 0v1475h737v-162h-542v-473h526v-166h-526v-512h542v-162h-737zM361 1609l204 348h201l-285 -348h-120z" />
<glyph unicode="&#xca;" horiz-adv-x="950" d="M135 0v1475h737v-162h-542v-473h526v-166h-526v-512h542v-162h-737zM209 1609l197 348h196l197 -348h-123l-172 230l-174 -230h-121z" />
<glyph unicode="&#xcb;" horiz-adv-x="950" d="M135 0v1475h737v-162h-542v-473h526v-166h-526v-512h542v-162h-737zM248 1669v209h182v-209h-182zM578 1669v209h182v-209h-182z" />
<glyph unicode="&#xcc;" horiz-adv-x="465" d="M133 0v1475h199v-1475h-199zM-29 1957h201l204 -348h-120z" />
<glyph unicode="&#xcd;" horiz-adv-x="465" d="M133 0v1475h199v-1475h-199zM90 1609l204 348h201l-285 -348h-120z" />
<glyph unicode="&#xce;" horiz-adv-x="465" d="M133 0v1475h199v-1475h-199zM-62 1609l197 348h196l197 -348h-123l-172 230l-174 -230h-121z" />
<glyph unicode="&#xcf;" horiz-adv-x="465" d="M133 0v1475h199v-1475h-199zM-23 1669v209h182v-209h-182zM307 1669v209h182v-209h-182z" />
<glyph unicode="&#xd0;" horiz-adv-x="1169" d="M-8 682v152h158v641h354q199 0 282.5 -23.5t143.5 -79.5q75 -70 105 -192t30 -459q0 -246 -20 -363.5t-68 -187.5q-62 -94 -155.5 -132t-317.5 -38h-354v682h-158zM346 168h207q107 0 168.5 24t93.5 78t45.5 163t13.5 315q0 146 -9 259t-21 144q-33 89 -97.5 126.5 t-193.5 37.5h-207v-481h262v-152h-262v-514z" />
<glyph unicode="&#xd1;" horiz-adv-x="1262" d="M135 0v1475h277l542 -1305q-4 71 -6 138.5t-2 131.5v1035h180v-1475h-264l-567 1341q8 -95 12 -163t4 -115v-1063h-176zM359 1656q18 103 64.5 153t123.5 50q14 0 25 -1.5t22 -4.5l91 -29q17 -5 28.5 -7.5t17.5 -2.5q34 0 56 18t34 56h82q-18 -103 -64.5 -156t-117.5 -53 q-14 0 -29 2.5t-32 7.5l-89 27q-15 4 -26 6t-20 2q-30 0 -51 -17t-33 -51h-82z" />
<glyph unicode="&#xd2;" horiz-adv-x="1167" d="M115 737q0 257 17 376t58 190q54 95 154.5 144.5t239.5 49.5q111 0 200.5 -34t147.5 -99q66 -76 93.5 -203.5t27.5 -439.5q0 -235 -18 -356.5t-58 -192.5q-56 -96 -156.5 -146.5t-236.5 -50.5q-111 0 -200.5 34.5t-147.5 99.5q-67 74 -94 199.5t-27 428.5zM313 737 q0 -221 9.5 -310t31.5 -140q33 -74 89 -110t139 -36q153 0 212.5 111t59.5 485t-59.5 484t-212.5 110q-67 0 -118.5 -24.5t-82.5 -71.5q-37 -56 -52.5 -147.5t-15.5 -350.5zM322 1957h201l204 -348h-120z" />
<glyph unicode="&#xd3;" horiz-adv-x="1167" d="M115 737q0 257 17 376t58 190q54 95 154.5 144.5t239.5 49.5q111 0 200.5 -34t147.5 -99q66 -76 93.5 -203.5t27.5 -439.5q0 -235 -18 -356.5t-58 -192.5q-56 -96 -156.5 -146.5t-236.5 -50.5q-111 0 -200.5 34.5t-147.5 99.5q-67 74 -94 199.5t-27 428.5zM313 737 q0 -221 9.5 -310t31.5 -140q33 -74 89 -110t139 -36q153 0 212.5 111t59.5 485t-59.5 484t-212.5 110q-67 0 -118.5 -24.5t-82.5 -71.5q-37 -56 -52.5 -147.5t-15.5 -350.5zM441 1609l204 348h201l-285 -348h-120z" />
<glyph unicode="&#xd4;" horiz-adv-x="1167" d="M115 737q0 257 17 376t58 190q54 95 154.5 144.5t239.5 49.5q111 0 200.5 -34t147.5 -99q66 -76 93.5 -203.5t27.5 -439.5q0 -235 -18 -356.5t-58 -192.5q-56 -96 -156.5 -146.5t-236.5 -50.5q-111 0 -200.5 34.5t-147.5 99.5q-67 74 -94 199.5t-27 428.5zM313 737 q0 -221 9.5 -310t31.5 -140q33 -74 89 -110t139 -36q153 0 212.5 111t59.5 485t-59.5 484t-212.5 110q-67 0 -118.5 -24.5t-82.5 -71.5q-37 -56 -52.5 -147.5t-15.5 -350.5zM289 1609l197 348h196l197 -348h-123l-172 230l-174 -230h-121z" />
<glyph unicode="&#xd5;" horiz-adv-x="1167" d="M115 737q0 257 17 376t58 190q54 95 154.5 144.5t239.5 49.5q111 0 200.5 -34t147.5 -99q66 -76 93.5 -203.5t27.5 -439.5q0 -235 -18 -356.5t-58 -192.5q-56 -96 -156.5 -146.5t-236.5 -50.5q-111 0 -200.5 34.5t-147.5 99.5q-67 74 -94 199.5t-27 428.5zM313 737 q0 -221 9.5 -310t31.5 -140q33 -74 89 -110t139 -36q153 0 212.5 111t59.5 485t-59.5 484t-212.5 110q-67 0 -118.5 -24.5t-82.5 -71.5q-37 -56 -52.5 -147.5t-15.5 -350.5zM312 1656q18 103 64.5 153t123.5 50q14 0 25 -1.5t22 -4.5l91 -29q17 -5 28.5 -7.5t17.5 -2.5 q34 0 56 18t34 56h82q-18 -103 -64.5 -156t-117.5 -53q-14 0 -29 2.5t-32 7.5l-89 27q-15 4 -26 6t-20 2q-30 0 -51 -17t-33 -51h-82z" />
<glyph unicode="&#xd6;" horiz-adv-x="1167" d="M115 737q0 257 17 376t58 190q54 95 154.5 144.5t239.5 49.5q111 0 200.5 -34t147.5 -99q66 -76 93.5 -203.5t27.5 -439.5q0 -235 -18 -356.5t-58 -192.5q-56 -96 -156.5 -146.5t-236.5 -50.5q-111 0 -200.5 34.5t-147.5 99.5q-67 74 -94 199.5t-27 428.5zM313 737 q0 -221 9.5 -310t31.5 -140q33 -74 89 -110t139 -36q153 0 212.5 111t59.5 485t-59.5 484t-212.5 110q-67 0 -118.5 -24.5t-82.5 -71.5q-37 -56 -52.5 -147.5t-15.5 -350.5zM328 1669v209h182v-209h-182zM658 1669v209h182v-209h-182z" />
<glyph unicode="&#xd7;" horiz-adv-x="1706" d="M301 135l475 475l-475 477l80 82l477 -477l475 477l82 -82l-475 -477l475 -475l-82 -82l-475 475l-477 -475z" />
<glyph unicode="&#xd8;" horiz-adv-x="1167" d="M39 -39l143 223q-37 58 -52 174t-15 396q0 246 17 362t58 187q56 95 156 144.5t238 49.5q118 0 207 -35t151 -106l121 174l70 -53l-138 -213q31 -50 43.5 -147.5t12.5 -338.5v-104q0 -214 -17.5 -323.5t-56.5 -178.5q-54 -96 -155 -146.5t-238 -50.5q-110 0 -198.5 33.5 t-149.5 97.5l-130 -192zM305 737q0 -94 3.5 -178.5t11.5 -162.5l509 786q-20 72 -82 110.5t-159 38.5q-160 0 -221.5 -110.5t-61.5 -483.5zM350 281q34 -71 92.5 -105.5t145.5 -34.5q161 0 222.5 112.5t61.5 483.5q0 86 -3 165t-9 155z" />
<glyph unicode="&#xd9;" horiz-adv-x="1186" d="M135 541v43v891h184v-953q0 -119 10 -172.5t33 -91.5q37 -61 93.5 -91t136.5 -30t137.5 30t93.5 91q22 37 31.5 90.5t9.5 171.5v33v922h187v-924q0 -309 -107.5 -442.5t-351.5 -133.5q-130 0 -219.5 40.5t-151.5 125.5q-46 65 -66 147.5t-20 252.5zM332 1957h201 l204 -348h-120z" />
<glyph unicode="&#xda;" horiz-adv-x="1186" d="M135 541v43v891h184v-953q0 -119 10 -172.5t33 -91.5q37 -61 93.5 -91t136.5 -30t137.5 30t93.5 91q22 37 31.5 90.5t9.5 171.5v33v922h187v-924q0 -309 -107.5 -442.5t-351.5 -133.5q-130 0 -219.5 40.5t-151.5 125.5q-46 65 -66 147.5t-20 252.5zM451 1609l204 348h201 l-285 -348h-120z" />
<glyph unicode="&#xdb;" horiz-adv-x="1186" d="M135 541v43v891h184v-953q0 -119 10 -172.5t33 -91.5q37 -61 93.5 -91t136.5 -30t137.5 30t93.5 91q22 37 31.5 90.5t9.5 171.5v33v922h187v-924q0 -309 -107.5 -442.5t-351.5 -133.5q-130 0 -219.5 40.5t-151.5 125.5q-46 65 -66 147.5t-20 252.5zM299 1609l197 348h196 l197 -348h-123l-172 230l-174 -230h-121z" />
<glyph unicode="&#xdc;" horiz-adv-x="1186" d="M135 541v43v891h184v-953q0 -119 10 -172.5t33 -91.5q37 -61 93.5 -91t136.5 -30t137.5 30t93.5 91q22 37 31.5 90.5t9.5 171.5v33v922h187v-924q0 -309 -107.5 -442.5t-351.5 -133.5q-130 0 -219.5 40.5t-151.5 125.5q-46 65 -66 147.5t-20 252.5zM338 1669v209h182 v-209h-182zM668 1669v209h182v-209h-182z" />
<glyph unicode="&#xdd;" horiz-adv-x="977" d="M-10 1475h223l281 -695l294 695h197l-410 -875v-600h-198v618zM346 1609l204 348h201l-285 -348h-120z" />
<glyph unicode="&#xde;" horiz-adv-x="1028" d="M135 0v1475h195v-295h207q236 0 330 -90.5t94 -313.5q0 -213 -92 -312t-289 -99h-250v-365h-195zM330 530h153q167 0 224 53t57 195q0 130 -50.5 183t-178.5 53h-205v-484z" />
<glyph unicode="&#xdf;" horiz-adv-x="1067" d="M113 0v1063q0 151 17 217t58 109q54 54 135.5 81t194.5 27q175 0 272 -74t97 -206q0 -61 -23.5 -116.5t-72.5 -115.5q-18 -22 -52 -57q-63 -66 -63 -99q0 -54 131 -172q41 -38 63 -59q75 -71 108.5 -139.5t33.5 -147.5q0 -149 -86.5 -236t-235.5 -87q-151 0 -229 66 t-78 194v18h176q2 -69 33 -106t88 -37q71 0 113.5 46t42.5 124q0 57 -29.5 106t-126.5 133l-14 13q-187 167 -187 254q0 34 24 76.5t91 123.5q8 10 23 28q79 94 79 171q0 74 -50 116t-140 42q-55 0 -98.5 -14t-67.5 -39q-23 -23 -33 -57t-10 -101v-82v-1063h-184z" />
<glyph unicode="&#xe0;" horiz-adv-x="920" d="M76 305q0 177 114.5 267t341.5 90h99v51q0 121 -35.5 167t-122.5 46q-93 0 -140.5 -39.5t-47.5 -116.5v-10h-189v20q0 134 92.5 203.5t272.5 69.5q178 0 262 -72.5t84 -226.5v-480q0 -71 4.5 -139.5t13.5 -134.5h-176l-12 129q-52 -67 -121 -103t-145 -36q-131 0 -213 87 t-82 228zM252 322q0 -76 46 -126.5t116 -50.5q104 0 161.5 81.5t57.5 232.5v80q-213 0 -297 -49.5t-84 -167.5zM219 1511h201l204 -348h-120z" />
<glyph unicode="&#xe1;" horiz-adv-x="920" d="M76 305q0 177 114.5 267t341.5 90h99v51q0 121 -35.5 167t-122.5 46q-93 0 -140.5 -39.5t-47.5 -116.5v-10h-189v20q0 134 92.5 203.5t272.5 69.5q178 0 262 -72.5t84 -226.5v-480q0 -71 4.5 -139.5t13.5 -134.5h-176l-12 129q-52 -67 -121 -103t-145 -36q-131 0 -213 87 t-82 228zM252 322q0 -76 46 -126.5t116 -50.5q104 0 161.5 81.5t57.5 232.5v80q-213 0 -297 -49.5t-84 -167.5zM338 1163l204 348h201l-285 -348h-120z" />
<glyph unicode="&#xe2;" horiz-adv-x="920" d="M76 305q0 177 114.5 267t341.5 90h99v51q0 121 -35.5 167t-122.5 46q-93 0 -140.5 -39.5t-47.5 -116.5v-10h-189v20q0 134 92.5 203.5t272.5 69.5q178 0 262 -72.5t84 -226.5v-480q0 -71 4.5 -139.5t13.5 -134.5h-176l-12 129q-52 -67 -121 -103t-145 -36q-131 0 -213 87 t-82 228zM252 322q0 -76 46 -126.5t116 -50.5q104 0 161.5 81.5t57.5 232.5v80q-213 0 -297 -49.5t-84 -167.5zM186 1163l197 348h196l197 -348h-123l-172 230l-174 -230h-121z" />
<glyph unicode="&#xe3;" horiz-adv-x="920" d="M76 305q0 177 114.5 267t341.5 90h99v51q0 121 -35.5 167t-122.5 46q-93 0 -140.5 -39.5t-47.5 -116.5v-10h-189v20q0 134 92.5 203.5t272.5 69.5q178 0 262 -72.5t84 -226.5v-480q0 -71 4.5 -139.5t13.5 -134.5h-176l-12 129q-52 -67 -121 -103t-145 -36q-131 0 -213 87 t-82 228zM252 322q0 -76 46 -126.5t116 -50.5q104 0 161.5 81.5t57.5 232.5v80q-213 0 -297 -49.5t-84 -167.5zM209 1210q18 103 64.5 153t123.5 50q14 0 25 -1.5t22 -4.5l91 -29q17 -5 28.5 -7.5t17.5 -2.5q34 0 56 18t34 56h82q-18 -103 -64.5 -156t-117.5 -53 q-14 0 -29 2.5t-32 7.5l-89 27q-15 4 -26 6t-20 2q-30 0 -51 -17t-33 -51h-82z" />
<glyph unicode="&#xe4;" horiz-adv-x="920" d="M76 305q0 177 114.5 267t341.5 90h99v51q0 121 -35.5 167t-122.5 46q-93 0 -140.5 -39.5t-47.5 -116.5v-10h-189v20q0 134 92.5 203.5t272.5 69.5q178 0 262 -72.5t84 -226.5v-480q0 -71 4.5 -139.5t13.5 -134.5h-176l-12 129q-52 -67 -121 -103t-145 -36q-131 0 -213 87 t-82 228zM252 322q0 -76 46 -126.5t116 -50.5q104 0 161.5 81.5t57.5 232.5v80q-213 0 -297 -49.5t-84 -167.5zM225 1223v209h182v-209h-182zM555 1223v209h182v-209h-182z" />
<glyph unicode="&#xe5;" horiz-adv-x="920" d="M76 305q0 177 114.5 267t341.5 90h99v51q0 121 -35.5 167t-122.5 46q-93 0 -140.5 -39.5t-47.5 -116.5v-10h-189v20q0 134 92.5 203.5t272.5 69.5q178 0 262 -72.5t84 -226.5v-480q0 -71 4.5 -139.5t13.5 -134.5h-176l-12 129q-52 -67 -121 -103t-145 -36q-131 0 -213 87 t-82 228zM250 322q0 -76 46.5 -126.5t117.5 -50.5q104 0 161.5 81.5t57.5 232.5v80q-213 0 -298 -49.5t-85 -167.5zM252 1337q0 94 64.5 159t158.5 65q96 0 160.5 -64.5t64.5 -159.5t-65 -160t-160 -65q-94 0 -158.5 65t-64.5 160zM354 1335q0 -50 35.5 -85.5t85.5 -35.5 q51 0 87 35.5t36 85.5q0 52 -36 87.5t-87 35.5t-86 -35.5t-35 -87.5z" />
<glyph unicode="&#xe6;" horiz-adv-x="1470" d="M84 301q0 181 114.5 271t344.5 90h98v51q0 123 -35.5 168t-122.5 45q-93 0 -141.5 -39.5t-48.5 -116.5v-10h-191q0 4 1 10.5t1 9.5q0 134 93.5 203.5t273.5 69.5q105 0 176 -28t111 -85q35 55 101 83t163 28q189 0 279 -101.5t90 -316.5v-94h-572v-125 q0 -156 47.5 -222.5t155.5 -66.5q80 0 130.5 51t64.5 146h174q-8 -163 -105.5 -255t-263.5 -92q-123 0 -208 48.5t-128 142.5q-55 -89 -129.5 -132.5t-171.5 -43.5q-136 0 -218.5 85t-82.5 226zM262 322q0 -79 43.5 -128t112.5 -49q109 0 167 80.5t58 233.5v80 q-212 0 -296.5 -49.5t-84.5 -167.5zM819 662h398v63q0 104 -48.5 155.5t-146.5 51.5q-92 0 -147.5 -57.5t-55.5 -153.5v-59z" />
<glyph unicode="&#xe7;" horiz-adv-x="924" d="M90 512q0 285 91 412t294 127q164 0 264.5 -87.5t100.5 -230.5v-22h-174q0 90 -47.5 140t-133.5 50q-117 0 -166 -86t-49 -303q0 -211 47.5 -299t157.5 -88q86 0 138 60.5t55 162.5h177q-3 -177 -100.5 -275t-269.5 -98q-203 0 -294 126t-91 411zM217 -326 q79 -18 144 -28.5t104 -10.5q60 0 89.5 20.5t29.5 61.5q0 44 -32 65t-99 21q-21 0 -32 -0.5t-22 -0.5v198h76v-102h29q109 0 166 -46t57 -135q0 -91 -64 -139.5t-186 -48.5q-50 0 -117 11.5t-143 33.5v100z" />
<glyph unicode="&#xe8;" horiz-adv-x="924" d="M90 522q0 277 92 403t293 126q191 0 280 -100.5t89 -317.5v-160h-572v-59q0 -152 48.5 -220.5t154.5 -68.5q81 0 130.5 51t62.5 146h176q-8 -163 -105.5 -255t-263.5 -92q-206 0 -295.5 126t-89.5 421zM273 606h397v88q0 116 -48 176t-141 60q-104 0 -154.5 -78 t-53.5 -246zM217 1511h201l204 -348h-120z" />
<glyph unicode="&#xe9;" horiz-adv-x="924" d="M90 522q0 277 92 403t293 126q191 0 280 -100.5t89 -317.5v-160h-572v-59q0 -152 48.5 -220.5t154.5 -68.5q81 0 130.5 51t62.5 146h176q-8 -163 -105.5 -255t-263.5 -92q-206 0 -295.5 126t-89.5 421zM273 606h397v88q0 116 -48 176t-141 60q-104 0 -154.5 -78 t-53.5 -246zM336 1163l204 348h201l-285 -348h-120z" />
<glyph unicode="&#xea;" horiz-adv-x="924" d="M90 522q0 277 92 403t293 126q191 0 280 -100.5t89 -317.5v-160h-572v-59q0 -152 48.5 -220.5t154.5 -68.5q81 0 130.5 51t62.5 146h176q-8 -163 -105.5 -255t-263.5 -92q-206 0 -295.5 126t-89.5 421zM273 606h397v88q0 116 -48 176t-141 60q-104 0 -154.5 -78 t-53.5 -246zM184 1163l197 348h196l197 -348h-123l-172 230l-174 -230h-121z" />
<glyph unicode="&#xeb;" horiz-adv-x="924" d="M90 522q0 277 92 403t293 126q191 0 280 -100.5t89 -317.5v-160h-572v-59q0 -152 48.5 -220.5t154.5 -68.5q81 0 130.5 51t62.5 146h176q-8 -163 -105.5 -255t-263.5 -92q-206 0 -295.5 126t-89.5 421zM273 606h397v88q0 116 -48 176t-141 60q-104 0 -154.5 -78 t-53.5 -246zM223 1223v209h182v-209h-182zM553 1223v209h182v-209h-182z" />
<glyph unicode="&#xec;" horiz-adv-x="428" d="M129 0v1028h170v-1028h-170zM-47 1511h201l204 -348h-120z" />
<glyph unicode="&#xed;" horiz-adv-x="428" d="M129 0v1028h170v-1028h-170zM72 1163l204 348h201l-285 -348h-120z" />
<glyph unicode="&#xee;" horiz-adv-x="428" d="M129 0v1028h170v-1028h-170zM-80 1163l197 348h196l197 -348h-123l-172 230l-174 -230h-121z" />
<glyph unicode="&#xef;" horiz-adv-x="428" d="M129 0v1028h170v-1028h-170zM-41 1223v209h182v-209h-182zM289 1223v209h182v-209h-182z" />
<glyph unicode="&#xf0;" horiz-adv-x="872" d="M84 483q0 262 82 385t256 123q40 0 77.5 -9.5t75.5 -29.5q-19 59 -39.5 106.5t-43.5 88.5l-283 -90l-31 94l250 84q-43 51 -94.5 100.5t-110.5 96.5l86 77q60 -39 124.5 -98t129.5 -135l248 80l31 -94l-219 -70q85 -149 125 -327.5t40 -415.5q0 -243 -85.5 -358.5 t-266.5 -115.5q-185 0 -268.5 120.5t-83.5 387.5zM252 483q0 -198 42.5 -282t141.5 -84t142 84t43 282q0 199 -43 283t-142 84q-98 0 -141 -84t-43 -283z" />
<glyph unicode="&#xf1;" horiz-adv-x="948" d="M105 1028h180l8 -119q54 75 119.5 109.5t152.5 34.5q127 0 201 -74.5t74 -202.5v-776h-178v657q0 150 -38.5 205.5t-131.5 55.5q-105 0 -153 -77.5t-48 -246.5v-594h-176v866q0 33 -2.5 73t-7.5 89zM203 1210q18 103 64.5 153t123.5 50q14 0 25 -1.5t22 -4.5l91 -29 q17 -5 28.5 -7.5t17.5 -2.5q34 0 56 18t34 56h82q-18 -103 -64.5 -156t-117.5 -53q-14 0 -29 2.5t-32 7.5l-89 27q-15 4 -26 6t-20 2q-30 0 -51 -17t-33 -51h-82z" />
<glyph unicode="&#xf2;" horiz-adv-x="950" d="M88 516q0 281 92.5 408t294.5 127q203 0 294 -126.5t91 -410.5t-91.5 -411.5t-293.5 -127.5q-204 0 -295.5 127.5t-91.5 413.5zM268 514q0 -211 48 -300t159 -89q110 0 157.5 89t47.5 298q0 212 -47.5 300.5t-157.5 88.5t-158.5 -90t-48.5 -297zM213 1511h201l204 -348 h-120z" />
<glyph unicode="&#xf3;" horiz-adv-x="950" d="M88 516q0 281 92.5 408t294.5 127q203 0 294 -126.5t91 -410.5t-91.5 -411.5t-293.5 -127.5q-204 0 -295.5 127.5t-91.5 413.5zM268 514q0 -211 48 -300t159 -89q110 0 157.5 89t47.5 298q0 212 -47.5 300.5t-157.5 88.5t-158.5 -90t-48.5 -297zM332 1163l204 348h201 l-285 -348h-120z" />
<glyph unicode="&#xf4;" horiz-adv-x="950" d="M88 516q0 281 92.5 408t294.5 127q203 0 294 -126.5t91 -410.5t-91.5 -411.5t-293.5 -127.5q-204 0 -295.5 127.5t-91.5 413.5zM268 514q0 -211 48 -300t159 -89q110 0 157.5 89t47.5 298q0 212 -47.5 300.5t-157.5 88.5t-158.5 -90t-48.5 -297zM180 1163l197 348h196 l197 -348h-123l-172 230l-174 -230h-121z" />
<glyph unicode="&#xf5;" horiz-adv-x="950" d="M88 516q0 281 92.5 408t294.5 127q203 0 294 -126.5t91 -410.5t-91.5 -411.5t-293.5 -127.5q-204 0 -295.5 127.5t-91.5 413.5zM268 514q0 -211 48 -300t159 -89q110 0 157.5 89t47.5 298q0 212 -47.5 300.5t-157.5 88.5t-158.5 -90t-48.5 -297zM203 1210 q18 103 64.5 153t123.5 50q14 0 25 -1.5t22 -4.5l91 -29q17 -5 28.5 -7.5t17.5 -2.5q34 0 56 18t34 56h82q-18 -103 -64.5 -156t-117.5 -53q-14 0 -29 2.5t-32 7.5l-89 27q-15 4 -26 6t-20 2q-30 0 -51 -17t-33 -51h-82z" />
<glyph unicode="&#xf6;" horiz-adv-x="950" d="M88 516q0 281 92.5 408t294.5 127q203 0 294 -126.5t91 -410.5t-91.5 -411.5t-293.5 -127.5q-204 0 -295.5 127.5t-91.5 413.5zM268 514q0 -211 48 -300t159 -89q110 0 157.5 89t47.5 298q0 212 -47.5 300.5t-157.5 88.5t-158.5 -90t-48.5 -297zM219 1223v209h182v-209 h-182zM549 1223v209h182v-209h-182z" />
<glyph unicode="&#xf7;" horiz-adv-x="1706" d="M254 553v117h1198v-117h-1198zM739 250q0 48 34 81.5t81 33.5t81 -34t34 -81t-33.5 -81t-81.5 -34t-81.5 33.5t-33.5 81.5zM739 971q0 47 34 80.5t81 33.5q48 0 81.5 -33.5t33.5 -80.5q0 -48 -33.5 -81.5t-81.5 -33.5q-49 0 -82 33.5t-33 81.5z" />
<glyph unicode="&#xf8;" horiz-adv-x="950" d="M90 512q0 290 92 414.5t303 124.5q93 0 156 -24t104 -75l74 111l62 -45l-88 -127q35 -65 51 -156t16 -225q0 -285 -92 -410t-301 -125q-69 0 -124.5 16t-102.5 48l-86 -131l-62 47l94 141q-49 57 -72.5 158.5t-23.5 257.5zM270 428q0 -61 6 -98t19 -66l350 535 q-17 50 -60 77t-106 27q-119 0 -164 -86.5t-45 -388.5zM338 190q25 -34 57.5 -49.5t79.5 -15.5q110 0 157.5 90t47.5 305q0 40 -3 84.5t-9 93.5z" />
<glyph unicode="&#xf9;" horiz-adv-x="948" d="M106 252v776h179v-655q0 -149 38 -204.5t132 -55.5q104 0 152 76.5t48 244.5v594h176v-866q1 -34 3.5 -74t6.5 -88h-179l-9 121q-54 -75 -120 -110.5t-152 -35.5q-127 0 -201 74.5t-74 202.5zM213 1511h201l204 -348h-120z" />
<glyph unicode="&#xfa;" horiz-adv-x="948" d="M106 252v776h179v-655q0 -149 38 -204.5t132 -55.5q104 0 152 76.5t48 244.5v594h176v-866q1 -34 3.5 -74t6.5 -88h-179l-9 121q-54 -75 -120 -110.5t-152 -35.5q-127 0 -201 74.5t-74 202.5zM332 1163l204 348h201l-285 -348h-120z" />
<glyph unicode="&#xfb;" horiz-adv-x="948" d="M106 252v776h179v-655q0 -149 38 -204.5t132 -55.5q104 0 152 76.5t48 244.5v594h176v-866q1 -34 3.5 -74t6.5 -88h-179l-9 121q-54 -75 -120 -110.5t-152 -35.5q-127 0 -201 74.5t-74 202.5zM180 1163l197 348h196l197 -348h-123l-172 230l-174 -230h-121z" />
<glyph unicode="&#xfc;" horiz-adv-x="948" d="M106 252v776h179v-655q0 -149 38 -204.5t132 -55.5q104 0 152 76.5t48 244.5v594h176v-866q1 -34 3.5 -74t6.5 -88h-179l-9 121q-54 -75 -120 -110.5t-152 -35.5q-127 0 -201 74.5t-74 202.5zM219 1223v209h182v-209h-182zM549 1223v209h182v-209h-182z" />
<glyph unicode="&#xfd;" horiz-adv-x="930" d="M20 1028h207l246 -813l244 813h190l-473 -1417h-174l113 389zM322 1163l204 348h201l-285 -348h-120z" />
<glyph unicode="&#xfe;" horiz-adv-x="961" d="M113 -389v1864h178v-551q47 68 108 99.5t148 31.5q64 0 122 -26.5t101 -76.5q55 -63 78.5 -155t23.5 -269q0 -286 -82.5 -419.5t-259.5 -133.5q-73 0 -133.5 36t-105.5 106v-506h-178zM289 510q0 -200 51 -292.5t160 -92.5q99 0 144.5 93.5t45.5 299.5q0 229 -46 317.5 t-157 88.5q-104 0 -151 -97t-47 -317z" />
<glyph unicode="&#xff;" horiz-adv-x="930" d="M20 1028h207l246 -813l244 813h190l-473 -1417h-174l113 389zM209 1223v209h182v-209h-182zM539 1223v209h182v-209h-182z" />
<glyph unicode="&#x131;" horiz-adv-x="428" d="M129 0v1028h170v-1028h-170z" />
<glyph unicode="&#x152;" horiz-adv-x="1632" d="M109 737q0 295 26.5 416t91.5 193q61 68 157 99.5t245 31.5q17 0 51 -1t51 -1h823v-162h-540v-473h540v-166h-540v-512h540v-162h-823q-23 0 -59 -1t-49 -1q-145 0 -240 31t-156 98q-65 71 -91.5 193t-26.5 417zM299 737q0 -358 59.5 -466.5t214.5 -108.5h246v1151h-246 q-161 0 -217.5 -93.5t-56.5 -482.5z" />
<glyph unicode="&#x153;" horiz-adv-x="1509" d="M90 512q0 285 91 412t294 127q105 0 177.5 -34t115.5 -104q50 71 120.5 104.5t168.5 33.5q193 0 283 -100.5t90 -317.5v-160h-572v-70q0 -146 48.5 -212t154.5 -66q80 0 130 51t62 146h177q-8 -163 -105.5 -255t-263.5 -92q-105 0 -178.5 35t-116.5 105 q-46 -71 -117.5 -105.5t-173.5 -34.5q-203 0 -294 126t-91 411zM270 514q0 -212 47.5 -300.5t157.5 -88.5q111 0 158 87.5t47 299.5q0 210 -48 299.5t-157 89.5t-157 -89t-48 -298zM858 606h397v88q0 122 -47.5 180t-148.5 58q-95 0 -148 -62.5t-53 -175.5v-88z" />
<glyph unicode="&#x178;" horiz-adv-x="977" d="M-10 1475h223l281 -695l294 695h197l-410 -875v-600h-198v618zM233 1669v209h182v-209h-182zM563 1669v209h182v-209h-182z" />
<glyph unicode="&#x2c6;" horiz-adv-x="1024" d="M217 1163l197 348h196l197 -348h-123l-172 230l-174 -230h-121z" />
<glyph unicode="&#x2dc;" horiz-adv-x="1024" d="M240 1210q18 103 64.5 153t123.5 50q14 0 25 -1.5t22 -4.5l91 -29q17 -5 28.5 -7.5t17.5 -2.5q34 0 56 18t34 56h82q-18 -103 -64.5 -156t-117.5 -53q-14 0 -29 2.5t-32 7.5l-89 27q-15 4 -26 6t-20 2q-30 0 -51 -17t-33 -51h-82z" />
<glyph unicode="&#x2000;" horiz-adv-x="986" />
<glyph unicode="&#x2001;" horiz-adv-x="1972" />
<glyph unicode="&#x2002;" horiz-adv-x="986" />
<glyph unicode="&#x2003;" horiz-adv-x="1972" />
<glyph unicode="&#x2004;" horiz-adv-x="657" />
<glyph unicode="&#x2005;" horiz-adv-x="493" />
<glyph unicode="&#x2006;" horiz-adv-x="328" />
<glyph unicode="&#x2007;" horiz-adv-x="328" />
<glyph unicode="&#x2008;" horiz-adv-x="246" />
<glyph unicode="&#x2009;" horiz-adv-x="394" />
<glyph unicode="&#x200a;" horiz-adv-x="109" />
<glyph unicode="&#x2010;" horiz-adv-x="569" d="M68 442v150h434v-150h-434z" />
<glyph unicode="&#x2011;" horiz-adv-x="569" d="M68 442v150h434v-150h-434z" />
<glyph unicode="&#x2012;" horiz-adv-x="569" d="M68 442v150h434v-150h-434z" />
<glyph unicode="&#x2013;" horiz-adv-x="1024" d="M0 455v118h1024v-118h-1024z" />
<glyph unicode="&#x2014;" horiz-adv-x="2048" d="M0 455v118h2048v-118h-2048z" />
<glyph unicode="&#x2018;" horiz-adv-x="426" d="M63 1073l156 402h143l-88 -402h-211z" />
<glyph unicode="&#x2019;" horiz-adv-x="426" d="M63 1073l89 402h210l-155 -402h-144z" />
<glyph unicode="&#x201a;" horiz-adv-x="426" d="M16 -211l90 401h213l-157 -401h-146z" />
<glyph unicode="&#x201c;" horiz-adv-x="754" d="M63 1073l158 402h148l-90 -402h-216zM391 1073l158 402h147l-90 -402h-215z" />
<glyph unicode="&#x201d;" horiz-adv-x="754" d="M63 1073l91 402h215l-158 -402h-148zM391 1073l88 402h217l-159 -402h-146z" />
<glyph unicode="&#x201e;" horiz-adv-x="754" d="M63 -211l91 401h215l-158 -401h-148zM391 -211l88 401h217l-159 -401h-146z" />
<glyph unicode="&#x2022;" horiz-adv-x="1208" d="M307 762q0 123 87 209t210 86q122 0 208.5 -86.5t86.5 -208.5t-87.5 -209.5t-209.5 -87.5q-123 0 -209 87t-86 210z" />
<glyph unicode="&#x2026;" horiz-adv-x="2048" d="M243 0v227h195v-227h-195zM925 0v227h195v-227h-195zM1609 0v227h195v-227h-195z" />
<glyph unicode="&#x202f;" horiz-adv-x="394" />
<glyph unicode="&#x2039;" horiz-adv-x="498" d="M78 512l186 397h156l-156 -397l156 -393h-156z" />
<glyph unicode="&#x203a;" horiz-adv-x="498" d="M78 119l155 393l-155 397h155l187 -397l-187 -393h-155z" />
<glyph unicode="&#x205f;" horiz-adv-x="493" />
<glyph unicode="&#x2122;" horiz-adv-x="1706" d="M254 1389v67h440v-67h-172v-467h-94v467h-174zM819 922v534h129l160 -405l149 405h132v-534h-82v458l-172 -458h-54l-180 458v-458h-82z" />
<glyph unicode="&#xe000;" horiz-adv-x="1030" d="M0 1030h1030v-1030h-1030v1030z" />
<glyph unicode="&#xfb01;" horiz-adv-x="954" d="M655 0v1028h170v-1028h-170zM655 1286v189h170v-189h-170zM8 901v127h144v176v66q0 73 16.5 110t54.5 64q41 27 101 40t149 13h45v-139q-116 -3 -154 -36t-38 -171v-123h192v-127h-192v-901h-174v901h-144z" />
<glyph unicode="&#xfb02;" horiz-adv-x="925" d="M637 0v1475h176v-1475h-176zM8 901v127h144v176v66q0 73 16.5 110t54.5 64q41 27 101 40t149 13h45v-139q-116 -3 -154 -36t-38 -171v-123h192v-127h-192v-901h-174v901h-144z" />
<glyph unicode="&#xfb03;" horiz-adv-x="1480" d="M1181 0v1028h170v-1028h-170zM1181 1286v189h170v-189h-170zM534 901v127h144v176v66q0 73 16.5 110t54.5 64q41 27 101 40t149 13h45v-139q-116 -3 -154 -36t-38 -171v-123h192v-127h-192v-901h-174v901h-144zM8 901v127h144v176v66q0 73 16.5 110t54.5 64q41 27 101 40 t149 13h45v-139q-116 -3 -154 -36t-38 -171v-123h192v-127h-192v-901h-174v901h-144z" />
<glyph unicode="&#xfb04;" horiz-adv-x="1451" d="M1163 0v1475h176v-1475h-176zM534 901v127h144v176v66q0 73 16.5 110t54.5 64q41 27 101 40t149 13h45v-139q-116 -3 -154 -36t-38 -171v-123h192v-127h-192v-901h-174v901h-144zM8 901v127h144v176v66q0 73 16.5 110t54.5 64q41 27 101 40t149 13h45v-139 q-116 -3 -154 -36t-38 -171v-123h192v-127h-192v-901h-174v901h-144z" />
</font>
</defs>
</svg>
